<svg width="64" height="19" viewBox="0 0 64 19" fill="none" xmlns="http://www.w3.org/2000/svg">
<path d="M0.68 18H3.392V6.924L8.684 18H9.836L15.14 6.924V18H17.84V0.719999H15.236L9.26 12.96L3.284 0.719999H0.68V18ZM24.8353 18.36C25.8673 18.36 26.7433 18.192 27.4633 17.856C28.1913 17.512 28.8313 16.98 29.3833 16.26V18H31.9153V10.044C31.9153 9.484 31.8913 8.968 31.8433 8.496C31.7953 8.016 31.6553 7.548 31.4233 7.092C30.9993 6.236 30.3473 5.62 29.4673 5.244C28.5953 4.868 27.5833 4.68 26.4313 4.68C24.9113 4.68 23.6993 5.012 22.7953 5.676C21.8913 6.34 21.2793 7.22 20.9593 8.316L23.5993 9.144C23.8153 8.48 24.1953 8.012 24.7393 7.74C25.2833 7.468 25.8473 7.332 26.4313 7.332C27.3113 7.332 27.9593 7.512 28.3753 7.872C28.7913 8.224 29.0273 8.772 29.0833 9.516C27.9473 9.684 26.8913 9.848 25.9153 10.008C24.9473 10.16 24.1233 10.348 23.4433 10.572C22.4193 10.924 21.6713 11.424 21.1993 12.072C20.7273 12.712 20.4913 13.504 20.4913 14.448C20.4913 15.16 20.6553 15.812 20.9833 16.404C21.3193 16.996 21.8113 17.472 22.4593 17.832C23.1073 18.184 23.8993 18.36 24.8353 18.36ZM25.4113 16.056C24.7313 16.056 24.2113 15.9 23.8513 15.588C23.4993 15.276 23.3233 14.884 23.3233 14.412C23.3233 13.988 23.4593 13.644 23.7313 13.38C24.0113 13.116 24.3993 12.892 24.8953 12.708C25.3513 12.556 25.8993 12.424 26.5393 12.312C27.1793 12.192 28.0153 12.052 29.0473 11.892C29.0393 12.196 29.0193 12.536 28.9873 12.912C28.9553 13.28 28.8793 13.612 28.7593 13.908C28.6633 14.204 28.4753 14.52 28.1953 14.856C27.9233 15.192 27.5553 15.476 27.0913 15.708C26.6273 15.94 26.0673 16.056 25.4113 16.056ZM42.6354 18V15.576C41.8274 15.696 41.1074 15.728 40.4754 15.672C39.8434 15.616 39.3834 15.348 39.0954 14.868C38.9434 14.62 38.8594 14.3 38.8434 13.908C38.8354 13.508 38.8314 13.052 38.8314 12.54V7.308H42.6354V5.04H38.8314V1.44H35.9514V5.04H33.5994V7.308H35.9514V12.708C35.9514 13.452 35.9594 14.116 35.9754 14.7C35.9914 15.276 36.1474 15.844 36.4434 16.404C36.7794 17.02 37.2714 17.472 37.9194 17.76C38.5674 18.04 39.2994 18.188 40.1154 18.204C40.9394 18.228 41.7794 18.16 42.6354 18ZM45.6622 3.072H48.5542V0.42H45.6622V3.072ZM45.6622 18H48.5542V5.04H45.6622V18ZM58.0408 18.36C59.2888 18.36 60.4288 18.04 61.4608 17.4C62.5008 16.752 63.2688 15.84 63.7648 14.664L60.9088 13.8C60.3328 15.032 59.3208 15.648 57.8728 15.648C56.8888 15.648 56.1128 15.364 55.5448 14.796C54.9768 14.22 54.6368 13.396 54.5248 12.324H63.9088C64.0208 10.764 63.8488 9.412 63.3928 8.268C62.9368 7.124 62.2368 6.24 61.2928 5.616C60.3568 4.992 59.2168 4.68 57.8728 4.68C56.6008 4.68 55.4808 4.968 54.5128 5.544C53.5448 6.112 52.7888 6.92 52.2448 7.968C51.7008 9.016 51.4288 10.248 51.4288 11.664C51.4288 12.976 51.7048 14.136 52.2568 15.144C52.8168 16.152 53.5928 16.94 54.5848 17.508C55.5768 18.076 56.7288 18.36 58.0408 18.36ZM57.9928 7.212C58.8888 7.212 59.5768 7.448 60.0568 7.92C60.5448 8.384 60.8528 9.124 60.9808 10.14H54.5968C54.9408 8.188 56.0728 7.212 57.9928 7.212Z" fill="#FCFBFA"/>
</svg>
